<svg width="20" height="20" viewBox="0 0 20 20" fill="none" xmlns="http://www.w3.org/2000/svg">
<path d="M8.5 3C11.5376 3 14 5.46243 14 8.5C14 9.74832 13.5841 10.8995 12.8834 11.8226L17.1761 16.1153C17.4689 16.4082 17.4689 16.8831 17.1761 17.176C16.8832 17.4689 16.4083 17.4689 16.1154 17.176L11.8227 12.8833C10.8996 13.584 9.74832 14 8.5 14C5.46243 14 3 11.5376 3 8.5C3 5.46243 5.46243 3 8.5 3ZM8.5 4.5C6.29086 4.5 4.5 6.29086 4.5 8.5C4.5 10.7091 6.29086 12.5 8.5 12.5C10.7091 12.5 12.5 10.7091 12.5 8.5C12.5 6.29086 10.7091 4.5 8.5 4.5Z" fill="#666666"/>
</svg>
